<mxfile host="app.diagrams.net" agent="Mozilla/5.0 (Windows NT 10.0; Win64; x64) AppleWebKit/537.36 (KHTML, like Gecko) Chrome/131.0.0.0 Safari/537.36 Edg/131.0.0.0" version="26.1.0">
  <diagram id="6a731a19-8d31-9384-78a2-239565b7b9f0" name="Page-1">
    <mxGraphModel dx="536" dy="230" grid="1" gridSize="10" guides="1" tooltips="1" connect="1" arrows="1" fold="1" page="1" pageScale="1" pageWidth="1169" pageHeight="827" background="none" math="0" shadow="0">
      <root>
        <mxCell id="0" />
        <mxCell id="1" parent="0" />
        <mxCell id="jyhxalviyGv4-tPcSQJU-56" style="edgeStyle=orthogonalEdgeStyle;rounded=0;orthogonalLoop=1;jettySize=auto;html=1;entryX=0.5;entryY=0;entryDx=0;entryDy=0;" edge="1" parent="1" source="jyhxalviyGv4-tPcSQJU-55" target="jyhxalviyGv4-tPcSQJU-59">
          <mxGeometry relative="1" as="geometry">
            <mxPoint x="460" y="330" as="targetPoint" />
            <Array as="points">
              <mxPoint x="460" y="210" />
              <mxPoint x="460" y="210" />
            </Array>
          </mxGeometry>
        </mxCell>
        <mxCell id="jyhxalviyGv4-tPcSQJU-55" value="开始" style="ellipse;whiteSpace=wrap;html=1;" vertex="1" parent="1">
          <mxGeometry x="400" y="60" width="120" height="80" as="geometry" />
        </mxCell>
        <mxCell id="jyhxalviyGv4-tPcSQJU-57" value="输入句子" style="text;html=1;align=center;verticalAlign=middle;resizable=0;points=[];autosize=1;strokeColor=none;fillColor=none;" vertex="1" parent="1">
          <mxGeometry x="470" y="178" width="70" height="30" as="geometry" />
        </mxCell>
        <mxCell id="jyhxalviyGv4-tPcSQJU-58" value="预处理" style="swimlane;startSize=30;" vertex="1" parent="1">
          <mxGeometry x="360" y="280" width="200" height="230" as="geometry" />
        </mxCell>
        <mxCell id="jyhxalviyGv4-tPcSQJU-60" style="edgeStyle=orthogonalEdgeStyle;rounded=0;orthogonalLoop=1;jettySize=auto;html=1;entryX=0.5;entryY=0;entryDx=0;entryDy=0;" edge="1" parent="jyhxalviyGv4-tPcSQJU-58" source="jyhxalviyGv4-tPcSQJU-59" target="jyhxalviyGv4-tPcSQJU-61">
          <mxGeometry relative="1" as="geometry">
            <mxPoint x="100" y="140" as="targetPoint" />
            <Array as="points" />
          </mxGeometry>
        </mxCell>
        <mxCell id="jyhxalviyGv4-tPcSQJU-59" value="字符串规范化处理" style="rounded=1;whiteSpace=wrap;html=1;" vertex="1" parent="jyhxalviyGv4-tPcSQJU-58">
          <mxGeometry x="40" y="80" width="120" height="40" as="geometry" />
        </mxCell>
        <mxCell id="jyhxalviyGv4-tPcSQJU-61" value="分离中文字符和非中文字符" style="rounded=1;whiteSpace=wrap;html=1;" vertex="1" parent="jyhxalviyGv4-tPcSQJU-58">
          <mxGeometry x="20" y="170" width="160" height="24" as="geometry" />
        </mxCell>
        <mxCell id="jyhxalviyGv4-tPcSQJU-64" value="词典分词" style="swimlane;startSize=30;" vertex="1" parent="1">
          <mxGeometry x="335" y="640" width="250" height="370" as="geometry" />
        </mxCell>
        <mxCell id="jyhxalviyGv4-tPcSQJU-80" value="记录匹配结果" style="rounded=1;whiteSpace=wrap;html=1;" vertex="1" parent="jyhxalviyGv4-tPcSQJU-64">
          <mxGeometry x="10" y="280" width="60" height="30" as="geometry" />
        </mxCell>
        <mxCell id="jyhxalviyGv4-tPcSQJU-84" style="edgeStyle=orthogonalEdgeStyle;rounded=0;orthogonalLoop=1;jettySize=auto;html=1;exitX=0.5;exitY=1;exitDx=0;exitDy=0;" edge="1" parent="jyhxalviyGv4-tPcSQJU-64" target="jyhxalviyGv4-tPcSQJU-83">
          <mxGeometry relative="1" as="geometry">
            <mxPoint x="65" y="310" as="sourcePoint" />
            <Array as="points">
              <mxPoint x="65" y="335" />
            </Array>
          </mxGeometry>
        </mxCell>
        <mxCell id="jyhxalviyGv4-tPcSQJU-65" style="edgeStyle=orthogonalEdgeStyle;rounded=0;orthogonalLoop=1;jettySize=auto;html=1;entryX=0.5;entryY=0;entryDx=0;entryDy=0;" edge="1" parent="jyhxalviyGv4-tPcSQJU-64" source="jyhxalviyGv4-tPcSQJU-66" target="jyhxalviyGv4-tPcSQJU-67">
          <mxGeometry relative="1" as="geometry">
            <mxPoint x="125" y="140" as="targetPoint" />
            <Array as="points" />
          </mxGeometry>
        </mxCell>
        <mxCell id="jyhxalviyGv4-tPcSQJU-66" value="构建双数组Trie树" style="rounded=1;whiteSpace=wrap;html=1;" vertex="1" parent="jyhxalviyGv4-tPcSQJU-64">
          <mxGeometry x="65" y="80" width="120" height="40" as="geometry" />
        </mxCell>
        <mxCell id="jyhxalviyGv4-tPcSQJU-70" style="edgeStyle=orthogonalEdgeStyle;rounded=0;orthogonalLoop=1;jettySize=auto;html=1;exitX=0.5;exitY=1;exitDx=0;exitDy=0;entryX=0.5;entryY=0;entryDx=0;entryDy=0;" edge="1" parent="jyhxalviyGv4-tPcSQJU-64" source="jyhxalviyGv4-tPcSQJU-67" target="jyhxalviyGv4-tPcSQJU-69">
          <mxGeometry relative="1" as="geometry" />
        </mxCell>
        <mxCell id="jyhxalviyGv4-tPcSQJU-67" value="正向最大匹配" style="rounded=1;whiteSpace=wrap;html=1;" vertex="1" parent="jyhxalviyGv4-tPcSQJU-64">
          <mxGeometry x="45" y="140" width="160" height="24" as="geometry" />
        </mxCell>
        <mxCell id="jyhxalviyGv4-tPcSQJU-73" style="edgeStyle=orthogonalEdgeStyle;rounded=0;orthogonalLoop=1;jettySize=auto;html=1;exitX=0.5;exitY=1;exitDx=0;exitDy=0;entryX=0.5;entryY=0;entryDx=0;entryDy=0;" edge="1" parent="jyhxalviyGv4-tPcSQJU-64" source="jyhxalviyGv4-tPcSQJU-69" target="jyhxalviyGv4-tPcSQJU-72">
          <mxGeometry relative="1" as="geometry" />
        </mxCell>
        <mxCell id="jyhxalviyGv4-tPcSQJU-69" value="正向最大匹配" style="rounded=1;whiteSpace=wrap;html=1;" vertex="1" parent="jyhxalviyGv4-tPcSQJU-64">
          <mxGeometry x="65" y="180" width="120" height="20" as="geometry" />
        </mxCell>
        <mxCell id="jyhxalviyGv4-tPcSQJU-76" style="edgeStyle=orthogonalEdgeStyle;rounded=0;orthogonalLoop=1;jettySize=auto;html=1;exitX=0;exitY=0.5;exitDx=0;exitDy=0;" edge="1" parent="jyhxalviyGv4-tPcSQJU-64" source="jyhxalviyGv4-tPcSQJU-72">
          <mxGeometry relative="1" as="geometry">
            <mxPoint x="55" y="280" as="targetPoint" />
          </mxGeometry>
        </mxCell>
        <mxCell id="jyhxalviyGv4-tPcSQJU-77" style="edgeStyle=orthogonalEdgeStyle;rounded=0;orthogonalLoop=1;jettySize=auto;html=1;exitX=1;exitY=0.5;exitDx=0;exitDy=0;" edge="1" parent="jyhxalviyGv4-tPcSQJU-64" source="jyhxalviyGv4-tPcSQJU-72">
          <mxGeometry relative="1" as="geometry">
            <mxPoint x="195" y="280" as="targetPoint" />
          </mxGeometry>
        </mxCell>
        <mxCell id="jyhxalviyGv4-tPcSQJU-72" value="匹配成功？" style="verticalLabelPosition=bottom;verticalAlign=top;html=1;shape=hexagon;perimeter=hexagonPerimeter2;arcSize=6;size=0.27;" vertex="1" parent="jyhxalviyGv4-tPcSQJU-64">
          <mxGeometry x="75" y="220" width="100" height="30" as="geometry" />
        </mxCell>
        <mxCell id="jyhxalviyGv4-tPcSQJU-78" value="是" style="text;html=1;align=center;verticalAlign=middle;resizable=0;points=[];autosize=1;strokeColor=none;fillColor=none;" vertex="1" parent="jyhxalviyGv4-tPcSQJU-64">
          <mxGeometry x="95" y="208" width="40" height="30" as="geometry" />
        </mxCell>
        <mxCell id="jyhxalviyGv4-tPcSQJU-86" style="edgeStyle=orthogonalEdgeStyle;rounded=0;orthogonalLoop=1;jettySize=auto;html=1;exitX=0.5;exitY=1;exitDx=0;exitDy=0;entryX=1;entryY=0.5;entryDx=0;entryDy=0;" edge="1" parent="jyhxalviyGv4-tPcSQJU-64" source="jyhxalviyGv4-tPcSQJU-81" target="jyhxalviyGv4-tPcSQJU-83">
          <mxGeometry relative="1" as="geometry" />
        </mxCell>
        <mxCell id="jyhxalviyGv4-tPcSQJU-81" value="调用HMM模块" style="rounded=1;whiteSpace=wrap;html=1;" vertex="1" parent="jyhxalviyGv4-tPcSQJU-64">
          <mxGeometry x="165" y="280" width="60" height="30" as="geometry" />
        </mxCell>
        <mxCell id="jyhxalviyGv4-tPcSQJU-83" value="" style="rhombus;whiteSpace=wrap;html=1;" vertex="1" parent="jyhxalviyGv4-tPcSQJU-64">
          <mxGeometry x="105" y="320" width="40" height="30" as="geometry" />
        </mxCell>
        <mxCell id="jyhxalviyGv4-tPcSQJU-79" value="否" style="text;html=1;align=center;verticalAlign=middle;resizable=0;points=[];autosize=1;strokeColor=none;fillColor=none;" vertex="1" parent="jyhxalviyGv4-tPcSQJU-64">
          <mxGeometry x="135" y="118" width="40" height="30" as="geometry" />
        </mxCell>
        <mxCell id="jyhxalviyGv4-tPcSQJU-68" style="edgeStyle=orthogonalEdgeStyle;rounded=0;orthogonalLoop=1;jettySize=auto;html=1;exitX=0.5;exitY=1;exitDx=0;exitDy=0;" edge="1" parent="1" source="jyhxalviyGv4-tPcSQJU-61" target="jyhxalviyGv4-tPcSQJU-66">
          <mxGeometry relative="1" as="geometry">
            <mxPoint x="459.8571428571429" y="620" as="targetPoint" />
          </mxGeometry>
        </mxCell>
        <mxCell id="jyhxalviyGv4-tPcSQJU-88" value="HMM处理" style="swimlane;" vertex="1" parent="1">
          <mxGeometry x="360" y="1030" width="200" height="280" as="geometry">
            <mxRectangle x="360" y="1030" width="90" height="30" as="alternateBounds" />
          </mxGeometry>
        </mxCell>
        <mxCell id="jyhxalviyGv4-tPcSQJU-98" style="edgeStyle=orthogonalEdgeStyle;rounded=0;orthogonalLoop=1;jettySize=auto;html=1;exitX=0.5;exitY=1;exitDx=0;exitDy=0;entryX=0.5;entryY=0;entryDx=0;entryDy=0;" edge="1" parent="jyhxalviyGv4-tPcSQJU-88" source="jyhxalviyGv4-tPcSQJU-89" target="jyhxalviyGv4-tPcSQJU-95">
          <mxGeometry relative="1" as="geometry" />
        </mxCell>
        <mxCell id="jyhxalviyGv4-tPcSQJU-89" value="加载BMES状态模型" style="rounded=1;whiteSpace=wrap;html=1;" vertex="1" parent="jyhxalviyGv4-tPcSQJU-88">
          <mxGeometry x="40" y="40" width="120" height="20" as="geometry" />
        </mxCell>
        <mxCell id="jyhxalviyGv4-tPcSQJU-96" value="根据状态切分词语" style="rounded=1;whiteSpace=wrap;html=1;" vertex="1" parent="jyhxalviyGv4-tPcSQJU-88">
          <mxGeometry x="40" y="220" width="120" height="20" as="geometry" />
        </mxCell>
        <mxCell id="jyhxalviyGv4-tPcSQJU-99" style="edgeStyle=orthogonalEdgeStyle;rounded=0;orthogonalLoop=1;jettySize=auto;html=1;exitX=0.5;exitY=1;exitDx=0;exitDy=0;entryX=0.5;entryY=0;entryDx=0;entryDy=0;" edge="1" parent="jyhxalviyGv4-tPcSQJU-88" source="jyhxalviyGv4-tPcSQJU-95" target="jyhxalviyGv4-tPcSQJU-94">
          <mxGeometry relative="1" as="geometry" />
        </mxCell>
        <mxCell id="jyhxalviyGv4-tPcSQJU-95" value="维特比算法解码" style="rounded=1;whiteSpace=wrap;html=1;" vertex="1" parent="jyhxalviyGv4-tPcSQJU-88">
          <mxGeometry x="40" y="90" width="120" height="20" as="geometry" />
        </mxCell>
        <mxCell id="jyhxalviyGv4-tPcSQJU-100" style="edgeStyle=orthogonalEdgeStyle;rounded=0;orthogonalLoop=1;jettySize=auto;html=1;exitX=0.5;exitY=1;exitDx=0;exitDy=0;entryX=0.5;entryY=0;entryDx=0;entryDy=0;" edge="1" parent="jyhxalviyGv4-tPcSQJU-88" source="jyhxalviyGv4-tPcSQJU-94" target="jyhxalviyGv4-tPcSQJU-96">
          <mxGeometry relative="1" as="geometry" />
        </mxCell>
        <mxCell id="jyhxalviyGv4-tPcSQJU-94" value="生成状态序列" style="rounded=1;whiteSpace=wrap;html=1;" vertex="1" parent="jyhxalviyGv4-tPcSQJU-88">
          <mxGeometry x="40" y="160" width="120" height="20" as="geometry" />
        </mxCell>
        <mxCell id="jyhxalviyGv4-tPcSQJU-97" style="edgeStyle=orthogonalEdgeStyle;rounded=0;orthogonalLoop=1;jettySize=auto;html=1;exitX=0.5;exitY=1;exitDx=0;exitDy=0;" edge="1" parent="jyhxalviyGv4-tPcSQJU-88" source="jyhxalviyGv4-tPcSQJU-96" target="jyhxalviyGv4-tPcSQJU-96">
          <mxGeometry relative="1" as="geometry" />
        </mxCell>
        <mxCell id="jyhxalviyGv4-tPcSQJU-87" style="edgeStyle=orthogonalEdgeStyle;rounded=0;orthogonalLoop=1;jettySize=auto;html=1;exitX=0.5;exitY=1;exitDx=0;exitDy=0;" edge="1" parent="1" source="jyhxalviyGv4-tPcSQJU-83" target="jyhxalviyGv4-tPcSQJU-88">
          <mxGeometry relative="1" as="geometry">
            <mxPoint x="460.05555555555554" y="1030.0000000000002" as="targetPoint" />
            <Array as="points">
              <mxPoint x="460" y="1030" />
              <mxPoint x="460" y="1030" />
            </Array>
          </mxGeometry>
        </mxCell>
      </root>
    </mxGraphModel>
  </diagram>
</mxfile>
